<svg xmlns="http://www.w3.org/2000/svg" version="1.1" xmlns:xlink="http://www.w3.org/1999/xlink" xmlns:svgjs="http://svgjs.dev/svgjs" width="1200" height="700" viewBox="0 0 1800 1600"><rect width="2100" height="1500" fill="#ffffff"></rect><g transform="matrix(0.47778308647873863,0,0,0.47778308647873863,522.7716948933313,250.40485829959516)"><svg viewBox="0 0 236 247" data-background-color="#ffffff" preserveAspectRatio="xMidYMid meet" height="2093" width="2000" xmlns="http://www.w3.org/2000/svg" xmlns:xlink="http://www.w3.org/1999/xlink"><g id="tight-bounds" transform="matrix(1,0,0,1,-0.13701657458562977,-0.09999999999999432)"><svg viewBox="0 0 236.27403314917126 247.2" height="247.2" width="236.27403314917126"><g><svg viewBox="0 0 236.27403314917126 247.2" height="239.2" width="236.27403314917126"><g><svg viewBox="0 0 236.27403314917126 247.2" height="247.2" width="236.27403314917126"><g id="textblocktransform"><svg viewBox="0 0 236.27403314917126 247.2" height="247.2" width="236.27403314917126" id="textblock"><g><svg viewBox="0 0 236.27403314917126 247.2" height="247.2" width="236.27403314917126"><g transform="matrix(1,0,0,1,0,0)"><svg width="236.27403314917126" viewBox="-1.59 -37.84 38.02 39.77" height="247.2" data-palette-color="#c10000"><path d="M36.16-34.59L36.16-34.59Q35.52-35.01 34.64-35.01L34.64-35.01Q32.91-35.01 31.52-33.11L31.52-33.11Q27.81-23.22 27.69-22.51 27.56-21.8 27.56-21.48L27.56-21.48Q27.56-19.97 29.22-19.46L29.22-19.46Q27.42-18.73 26.73-17.99L26.73-17.99Q25.66-16.8 24.8-14.33L24.8-14.33 20.34-2.12Q19.09 1.42 18.51 1.81L18.51 1.81Q18.29 1.93 17.99 1.93 17.7 1.93 17.5 1.76L17.5 1.76 9.57-15.99Q9.08-17.14 8.3-17.75L8.3-17.75Q7.03-18.73 5.05-19.46L5.05-19.46Q7.18-20.63 7.13-21.63L7.13-21.63Q7.13-22.09 6.74-23.12L6.74-23.12 2.47-34.11Q1.17-35.01 0.1-35.01L0.1-35.01Q-0.68-35.01-1.32-34.59L-1.32-34.59Q-1.59-34.79-1.59-35.33-1.59-35.86-1.42-36.32-1.25-36.77-0.88-37.11L-0.88-37.11Q-0.1-37.84 1.37-37.84L1.37-37.84Q2.83-37.84 3.96-37.06L3.96-37.06Q5.2-37.84 6.87-37.84 8.54-37.84 9.77-37.08L9.77-37.08Q11.06-37.84 12.13-37.84 13.21-37.84 13.89-37.68 14.58-37.52 15.09-37.21L15.09-37.21Q16.19-36.57 16.24-35.45L16.24-35.45Q16.24-34.77 15.97-34.59L15.97-34.59Q15.31-35.01 14.62-35.01L14.62-35.01Q13.09-35.01 12.23-34.42L12.23-34.42 20.24-11.57 27.76-33.33Q27.64-34.16 27.11-34.64 26.59-35.13 25.51-35.13 24.44-35.13 23.73-34.72L23.73-34.72Q23.49-35.08 23.49-35.86 23.49-36.65 24.15-37.24 24.8-37.84 25.96-37.84 27.12-37.84 28.03-37.28L28.03-37.28Q28.81-37.84 29.98-37.84 31.15-37.84 31.91-37.3L31.91-37.3Q32.98-37.84 34.06-37.84 35.13-37.84 35.78-37.15 36.43-36.45 36.43-35.35L36.43-35.35Q36.43-34.79 36.16-34.59ZM27.69-32.08L27.73-32.28Q27.69-32.13 27.69-32.08L27.69-32.08ZM17.38-6.47L7.86-30.52Q7.32-30.13 7.32-29.5 7.32-28.88 7.36-28.56 7.4-28.25 7.54-27.75 7.69-27.25 7.98-26.46L7.98-26.46 9.33-23Q9.81-21.73 9.86-21.09L9.86-21.09Q9.99-20.02 8.5-19.46L8.5-19.46Q9.5-19.26 10.14-18.98 10.79-18.7 11.3-17.59 11.82-16.48 12.65-14.4L12.65-14.4 14.7-9.42Q15.63-7.15 16.75-6.69L16.75-6.69Q17.07-6.54 17.38-6.47L17.38-6.47Z" opacity="1" transform="matrix(1,0,0,1,0,0)" fill="#c10000" class="wordmark-text-0" data-fill-palette-color="primary" id="text-0"></path></svg></g></svg></g></svg></g></svg></g></svg></g><defs></defs></svg><rect width="236.27403314917126" height="247.2" fill="none" stroke="none" visibility="hidden"></rect></g></svg></g></svg>